<svg width="667" height="171" viewBox="0 0 667 171" fill="none" xmlns="http://www.w3.org/2000/svg">
<path fill-rule="evenodd" clip-rule="evenodd" d="M140 0H8.0723C3.65402 0 0 3.58172 0 8V163C0 167.418 3.58172 171 8 171H221V170H8C4.13401 170 1 166.866 1 163V8C1 4.14567 4.19457 1 8.0723 1H9.55216H11.0296H12.5045H13.9771H15.4472H16.9149H18.3802H19.8431H21.3036H22.7618H24.2176H25.671H27.1221H28.5709H30.0173H31.4614H32.9032H34.3427H35.78H37.2149H38.6476H40.078H41.5062H42.9321H44.3559H45.7773H47.1966H48.6137H50.0286H51.4413H52.8518H54.2602H55.6664H57.0705H58.4725H59.8723H61.27H62.6656H64.0591H65.4506H66.8399H68.2272H69.6124H70.9956H72.3768H73.7559H75.133H76.5081H77.8812H79.2523H80.6214H81.9886H83.3538H84.717H86.0783H87.4377H88.7952H90.1507H91.5044H92.8561H94.206H95.554H96.9001H98.2444H99.5868H100.927H102.266H103.603H104.938H106.272H107.603H108.933H110.261H111.587H112.912H114.235H115.556H116.875H118.192H119.508H120.823H122.135H123.446H124.755H126.063H127.369H128.673H129.976H131.277H132.576H133.874H135.17H136.465H137.758H139.05H140V0ZM536 1H537.024H538.327H539.631H540.937H542.245H543.554H544.865H546.177H547.492H548.807H550.125H551.444H552.766H554.088H555.413H556.739H558.067H559.397H560.728H562.062H563.397H564.734H566.073H567.413H568.756H570.1H571.446H572.794H574.144H575.496H576.849H578.205H579.562H580.922H582.283H583.646H585.011H586.379H587.748H589.119H590.492H591.867H593.244H594.623H596.004H597.388H598.773H600.16H601.549H602.941H604.334H605.73H607.128H608.528H609.929H611.334H612.74H614.148H615.559H616.971H618.386H619.803H621.223H622.644H624.068H625.494H626.922H628.352H629.785H631.22H632.657H634.097H635.539H636.983H638.429H639.878H641.329H642.782H644.238H645.696H647.157H648.62H650.085H651.553H653.023H654.495H655.97H657.448H658.928C662.805 1 666 4.14567 666 8V163C666 166.866 662.866 170 659 170H446V171H659C663.418 171 667 167.418 667 163V8C667 3.58172 663.346 0 658.928 0H536V1Z" fill="white"/>
</svg>
